<?xml version="1.0" encoding="UTF-8" standalone="no"?>
<!-- Created with Inkscape (http://www.inkscape.org/) -->

<svg
   width="512"
   height="512"
   viewBox="0 0 512 512"
   version="1.1"
   id="svg1"
   xml:space="preserve"
   inkscape:version="1.4.3 (0d15f75042, 2025-12-25)"
   sodipodi:docname="BooleanSwitch-Gizmo.svg"
   xmlns:inkscape="http://www.inkscape.org/namespaces/inkscape"
   xmlns:sodipodi="http://sodipodi.sourceforge.net/DTD/sodipodi-0.dtd"
   xmlns:xlink="http://www.w3.org/1999/xlink"
   xmlns="http://www.w3.org/2000/svg"
   xmlns:svg="http://www.w3.org/2000/svg"><sodipodi:namedview
     id="namedview1"
     pagecolor="#505050"
     bordercolor="#eeeeee"
     borderopacity="1"
     inkscape:showpageshadow="0"
     inkscape:pageopacity="0"
     inkscape:pagecheckerboard="0"
     inkscape:deskcolor="#505050"
     inkscape:document-units="px"
     inkscape:zoom="0.82656916"
     inkscape:cx="300.03539"
     inkscape:cy="309.10904"
     inkscape:window-width="1692"
     inkscape:window-height="1372"
     inkscape:window-x="1936"
     inkscape:window-y="48"
     inkscape:window-maximized="0"
     inkscape:current-layer="layer1" /><defs
     id="defs1"><linearGradient
       id="linearGradient10"
       inkscape:collect="always"><stop
         style="stop-color:#4d9fdc;stop-opacity:1;"
         offset="0.5"
         id="stop11" /><stop
         style="stop-color:#ff5f5f;stop-opacity:1;"
         offset="0.5"
         id="stop12" /></linearGradient><inkscape:path-effect
       effect="powerstroke"
       message=""
       id="path-effect1"
       is_visible="true"
       lpeversion="1.3"
       scale_width="0.7"
       interpolator_type="CubicBezierSmooth"
       interpolator_beta="0.25"
       start_linecap_type="zerowidth"
       end_linecap_type="zerowidth"
       offset_points="4.3324347,0.41623441"
       linejoin_type="round"
       miter_limit="4"
       not_jump="false"
       sort_points="true" /><inkscape:path-effect
       effect="fill_between_many"
       method="bsplinespiro"
       autoreverse="false"
       close="false"
       join="false"
       linkedpaths="#rect1,0,1"
       id="path-effect2" /><linearGradient
       inkscape:collect="always"
       xlink:href="#linearGradient10"
       id="linearGradient9"
       gradientUnits="userSpaceOnUse"
       x1="2.4927208"
       y1="5.0360341"
       x2="15.688533"
       y2="11.472061"
       spreadMethod="pad" /><linearGradient
       inkscape:collect="always"
       xlink:href="#linearGradient10"
       id="linearGradient12"
       x1="1.1632246"
       y1="7.0341786"
       x2="14.844003"
       y2="7.0341786"
       gradientUnits="userSpaceOnUse"
       gradientTransform="matrix(0.88420667,0,0,0.88420667,0.93259366,1.5931872)" /></defs><g
     inkscape:label="Layer 1"
     inkscape:groupmode="layer"
     id="layer1"><g
       inkscape:label="Layer 1"
       id="layer1-5"
       transform="matrix(29.085237,0,0,29.085237,23.318104,23.336513)"><path
         d="M 3.3110104,5.932064 H 15.519941 c 0.02291,0 0.04135,0.018444 0.04135,0.041354 v 5.9096568 c 0,0.02291 -0.01844,0.04135 -0.04135,0.04135 H 3.3110104 c -0.02291,0 -0.041354,-0.01844 -0.041354,-0.04135 V 5.9734182 c 0,-0.02291 0.018444,-0.041354 0.041354,-0.041354 z"
         id="path2"
         style="display:inline;fill:#262626"
         transform="matrix(1.2003067,0,0,1.114096,-3.3014585,-1.945909)"
         inkscape:original-d="M 0,0"
         inkscape:path-effect="#path-effect2" /><path
         style="display:inline;fill:url(#linearGradient9);fill-rule:nonzero;stroke:none;stroke-width:0.805;stroke-linecap:round;stroke-linejoin:round;stroke-opacity:1;paint-order:markers stroke fill"
         id="rect1"
         width="13.016746"
         height="6.3458657"
         x="2.5822515"
         y="5.082706"
         inkscape:linked-fill="path2"
         sodipodi:type="rect"
         transform="matrix(1.1334428,0,0,1.0520345,-2.3037027,-0.68420224)"
         d="m 2.6260453,5.3740701 c 0,0 3.6807117,0 12.9291557,0 -0.03122,0 -0.06409,-0.00596 -0.0961,-0.01945 -0.02834,-0.011945 -0.05542,-0.029587 -0.07893,-0.053089 -0.0213,-0.021297 -0.03994,-0.047743 -0.05309,-0.078927 -0.01217,-0.02887 -0.01945,-0.061483 -0.01945,-0.096104 0,1.8447917 0,3.924348 0,6.2582783 0,-0.03256 0.0065,-0.0653 0.01945,-0.0961 0.01233,-0.02924 0.03027,-0.0561 0.05309,-0.07893 0.0219,-0.0219 0.04844,-0.04024 0.07893,-0.05309 0.02948,-0.01243 0.06212,-0.01945 0.0961,-0.01945 -1.398963,0 -2.831465,0 -4.2981,0 -3.0487703,0 -5.9232999,0 -8.6310577,0 0.034201,0 0.066829,0.0071 0.096104,0.01945 0.030714,0.01295 0.057195,0.03136 0.078927,0.05309 0.023027,0.02303 0.040876,0.04996 0.053089,0.07893 0.013126,0.03114 0.019451,0.0639 0.019451,0.0961 0,-2.5043725 0,-4.5733664 0,-6.2582782 0,0.035993 -0.00785,0.068593 -0.019451,0.096103 -0.013966,0.033129 -0.033425,0.059262 -0.053089,0.078927 -0.026449,0.026449 -0.054859,0.042943 -0.078927,0.053089 -0.063351,0.026706 -0.096104,0.01945 -0.096104,0.01945 z m 0,-0.5827282 c 0,0 -0.044813,-0.00971 -0.13026,0.026312 -0.032499,0.0137 -0.070941,0.036005 -0.1067606,0.071825 -0.026642,0.026642 -0.052957,0.062003 -0.071825,0.1067605 -0.015635,0.037089 -0.026312,0.081203 -0.026312,0.13026 0,1.6849119 0,3.7539058 0,6.2582783 0,0.04392 0.00861,0.08826 0.026312,0.13026 0.016497,0.03913 0.040634,0.07557 0.071825,0.10676 0.029428,0.02943 0.065268,0.05433 0.1067606,0.07183 0.039477,0.01664 0.083629,0.02631 0.13026,0.02631 2.7077578,0 5.5822874,0 8.6310577,0 1.466635,0 2.899137,0 4.2981,0 0.04634,0 0.09051,-0.0096 0.13026,-0.02631 0.04119,-0.01736 0.0771,-0.04217 0.106761,-0.07182 0.03092,-0.03091 0.05517,-0.06726 0.07183,-0.106761 0.01751,-0.04155 0.02631,-0.08584 0.02631,-0.13026 0,-2.3339303 0,-4.4134866 0,-6.2582783 0,-0.0472 -0.0099,-0.091331 -0.02631,-0.13026 -0.01776,-0.042126 -0.04298,-0.07791 -0.07183,-0.1067606 -0.03183,-0.031834 -0.06849,-0.055691 -0.106761,-0.071825 -0.04318,-0.018201 -0.08766,-0.026312 -0.13026,-0.026312 -9.248446,0 -12.9291577,0 -12.9291577,0 z"
         inkscape:path-effect="#path-effect1"
         ry="0.043793727" /><path
         d="m 13.026713,6.3211102 -0.517405,0.086827 v 2.8476377 h 0.517405 V 7.7259922 c 0.02769,-0.010071 0.06545,-0.020147 0.113285,-0.030218 0.04784,-0.012589 0.09573,-0.01887 0.14357,-0.01887 0.07805,0 0.13844,0.018909 0.181243,0.056676 0.0428,0.035249 0.07303,0.091843 0.09065,0.1698939 0.02014,0.075533 0.03022,0.1749844 0.03022,0.2983553 v 1.0537455 h 0.521165 v -1.121703 c 0,-0.1812797 -0.02388,-0.3398777 -0.07172,-0.4758375 C 13.989811,7.5220749 13.910445,7.4162758 13.797145,7.3407426 13.686363,7.2626916 13.532803,7.223697 13.336416,7.223697 c -0.0428,0 -0.09442,0.00628 -0.154852,0.01887 -0.06043,0.012589 -0.112049,0.02646 -0.154851,0.041567 z"
         style="font-size:3.77666px;font-family:'Ubuntu Sans Mono';-inkscape-font-specification:'Ubuntu Sans Mono';fill:url(#linearGradient12);stroke-width:0.253351;stroke-linecap:round;stroke-linejoin:round;paint-order:markers stroke fill"
         id="path8" /><path
         d="m 11.451869,7.216176 c -0.196386,0 -0.36637,0.027676 -0.509883,0.083067 -0.143513,0.052873 -0.261807,0.1271341 -0.354964,0.2228095 -0.09316,0.095675 -0.162381,0.2076882 -0.207701,0.3360946 -0.04532,0.1258887 -0.06802,0.2606062 -0.06802,0.4041193 0,0.1938686 0.03906,0.3701333 0.117112,0.528753 0.08057,0.156102 0.20521,0.2807434 0.373901,0.3739011 0.168691,0.09064 0.388988,0.1359151 0.660908,0.1359151 0.09316,0 0.178737,-0.00504 0.256788,-0.015109 0.07805,-0.00755 0.148584,-0.017562 0.211528,-0.030151 0.06295,-0.015107 0.118296,-0.031531 0.166134,-0.049155 l -0.07555,-0.4305099 c -0.0705,0.025178 -0.151039,0.044087 -0.241679,0.056676 -0.09064,0.010071 -0.17622,0.015109 -0.256788,0.015109 -0.163656,0 -0.295888,-0.023948 -0.396599,-0.071785 -0.100711,-0.047838 -0.173729,-0.1145751 -0.219049,-0.2001794 -0.04532,-0.088122 -0.06796,-0.1926114 -0.06796,-0.3134645 0,-0.1158175 0.02015,-0.2177542 0.06044,-0.3058763 0.04028,-0.088122 0.108265,-0.1574121 0.20394,-0.2077675 0.09819,-0.052873 0.229116,-0.079306 0.392771,-0.079306 0.108264,0 0.196396,0.00759 0.264376,0.022697 0.0705,0.015107 0.13344,0.032706 0.188831,0.052849 l 0.113285,-0.4191613 c -0.09819,-0.040284 -0.195159,-0.068027 -0.290834,-0.083134 -0.09568,-0.017624 -0.20265,-0.026391 -0.320986,-0.026391 z"
         style="font-size:3.77666px;font-family:'Ubuntu Sans Mono';-inkscape-font-specification:'Ubuntu Sans Mono';fill:url(#linearGradient12);stroke-width:0.253351;stroke-linecap:round;stroke-linejoin:round;paint-order:markers stroke fill"
         id="path7" /><path
         d="M 9.1367451,6.6836625 8.6155802,6.7667293 V 7.2690245 H 8.162373 v 0.4305099 h 0.4532072 v 0.8157597 c 0,0.221564 0.028986,0.3889954 0.086894,0.5022952 0.060427,0.1132998 0.1472491,0.1888706 0.2605489,0.2266372 0.1132998,0.037767 0.2505699,0.056609 0.4117074,0.056609 0.1032287,0 0.2102034,-0.00877 0.3209855,-0.026391 0.1132998,-0.015107 0.217789,-0.042849 0.3134646,-0.083134 L 9.9373956,8.7419313 c -0.098193,0.04532 -0.1825302,0.074238 -0.2530279,0.086827 -0.070498,0.012589 -0.1548347,0.018937 -0.2530278,0.018937 -0.057909,0 -0.1095321,-0.00759 -0.154852,-0.022697 C 9.231168,8.8073736 9.1959688,8.7746598 9.170791,8.7268221 9.1481311,8.6764667 9.1367451,8.6022057 9.1367451,8.5040126 V 7.6995344 H 9.9714415 V 7.2690245 H 9.1367451 Z"
         style="font-size:3.77666px;font-family:'Ubuntu Sans Mono';-inkscape-font-specification:'Ubuntu Sans Mono';fill:url(#linearGradient12);stroke-width:0.253351;stroke-linecap:round;stroke-linejoin:round;paint-order:markers stroke fill"
         id="path6" /><path
         d="m 6.7877092,6.3248707 c -0.088122,0 -0.1649356,0.030228 -0.2303977,0.090655 -0.065462,0.057909 -0.098176,0.1384505 -0.098176,0.2416792 0,0.100711 0.032714,0.1812527 0.098176,0.2416792 0.065462,0.060427 0.1422756,0.090655 0.2303977,0.090655 0.088122,0 0.1648684,-0.030228 0.2303305,-0.090655 0.065462,-0.060427 0.098243,-0.1409682 0.098243,-0.2416792 0,-0.1032287 -0.032781,-0.1837704 -0.098243,-0.2416792 C 6.9525776,6.355099 6.8758313,6.3248707 6.7877092,6.3248707 Z"
         style="font-size:3.77666px;font-family:'Ubuntu Sans Mono';-inkscape-font-specification:'Ubuntu Sans Mono';fill:url(#linearGradient12);stroke-width:0.253351;stroke-linecap:round;stroke-linejoin:round;paint-order:markers stroke fill"
         id="path5" /><path
         d="m 6.0474953,7.2690245 v 0.4305099 h 0.5513831 v 0.7326929 c 0,0.1812797 0.021395,0.3373922 0.064197,0.4683165 0.042802,0.1284064 0.1158204,0.2278576 0.2190491,0.2983552 0.1057464,0.06798 0.2479875,0.1019364 0.4267494,0.1019364 0.052873,0 0.1095346,-0.00373 0.1699612,-0.011282 0.060427,-0.00755 0.1233686,-0.020182 0.1888307,-0.037806 0.065462,-0.020142 0.1334423,-0.046575 0.2039399,-0.079306 L 7.8036482,8.7532128 c -0.085604,0.040284 -0.1624178,0.066785 -0.2303977,0.079373 -0.06798,0.010071 -0.1246412,0.015109 -0.1699611,0.015109 -0.06798,0 -0.1233985,-0.012629 -0.1662006,-0.037806 C 7.1968044,8.7847111 7.1666433,8.7469593 7.1465011,8.6966038 7.1288767,8.6437306 7.1200433,8.5782359 7.1200433,8.5001849 V 7.2690245 Z"
         style="font-size:3.77666px;font-family:'Ubuntu Sans Mono';-inkscape-font-specification:'Ubuntu Sans Mono';fill:url(#linearGradient12);stroke-width:0.253351;stroke-linecap:round;stroke-linejoin:round;paint-order:markers stroke fill"
         id="path4" /><path
         d="m 3.8267864,7.2690245 c 0.02266,0.2517773 0.04785,0.4985076 0.075546,0.7402139 0.030213,0.2417062 0.06417,0.4682843 0.1019364,0.6797773 0.037767,0.211493 0.079314,0.4003864 0.1246337,0.5665594 h 0.3927707 c 0.035249,-0.09064 0.06672,-0.1724914 0.094415,-0.2455068 0.027695,-0.075533 0.051643,-0.1473087 0.071785,-0.2152886 0.02266,-0.06798 0.045298,-0.1384455 0.067958,-0.2114609 0.025178,-0.073015 0.051611,-0.154867 0.079306,-0.2455068 0.025178,0.09064 0.049125,0.1737341 0.071785,0.2492673 0.025178,0.073015 0.049125,0.1447909 0.071785,0.2152886 0.025178,0.06798 0.050301,0.1384455 0.075479,0.2114609 0.027696,0.073015 0.057924,0.1536243 0.090655,0.2417463 h 0.3927706 c 0.04532,-0.1686908 0.08811,-0.3575842 0.1283942,-0.5665594 0.040284,-0.211493 0.075551,-0.4368284 0.105764,-0.6760168 0.032731,-0.2417063 0.059164,-0.4896793 0.079306,-0.7439744 H 5.4054573 C 5.4004217,7.4377153 5.3941409,7.5988659 5.3865876,7.75245 5.3790343,7.9060342 5.3689582,8.0608368 5.3563693,8.2169388 5.3437804,8.3730407 5.3261137,8.5379866 5.3034537,8.711713 5.2707227,8.6034487 5.2418042,8.5027548 5.2166265,8.4095972 5.1914488,8.3164396 5.1687439,8.2295499 5.1486018,8.1489812 5.1284596,8.0658947 5.1096172,7.985353 5.0919928,7.907302 5.0743684,7.829251 5.0567016,7.7498849 5.0390772,7.6693161 H 4.6614157 C 4.6412735,7.7498849 4.6224312,7.829251 4.6048068,7.907302 4.5871823,7.985353 4.5670301,8.0658947 4.5443702,8.1489812 4.524228,8.2320677 4.5002804,8.3202001 4.4725849,8.4133577 4.4474072,8.5039975 4.4159362,8.6034487 4.3781696,8.711713 4.3605451,8.5858243 4.345431,8.4637355 4.3328421,8.3454001 4.322771,8.224547 4.3140048,8.1049436 4.3064515,7.9866082 4.3014159,7.8657551 4.2951351,7.7461517 4.2875818,7.6278164 4.2825463,7.509481 4.2775082,7.3898776 4.2724727,7.2690245 Z"
         style="font-size:3.77666px;font-family:'Ubuntu Sans Mono';-inkscape-font-specification:'Ubuntu Sans Mono';fill:url(#linearGradient12);stroke-width:0.253351;stroke-linecap:round;stroke-linejoin:round;paint-order:markers stroke fill"
         id="path3" /><path
         d="m 2.7957382,7.216176 c -0.1989041,0 -0.3612974,0.028919 -0.487186,0.086827 -0.1233709,0.055391 -0.2152315,0.1309618 -0.275658,0.2266372 -0.057909,0.093158 -0.086894,0.196337 -0.086894,0.3096368 0,0.1032287 0.020152,0.1901183 0.060437,0.260616 0.042802,0.06798 0.096978,0.1246412 0.1624401,0.1699611 0.065462,0.04532 0.1371704,0.083072 0.2152214,0.113285 0.080569,0.027696 0.158625,0.052886 0.2341582,0.075546 0.073015,0.02266 0.1397528,0.045298 0.2001794,0.067958 0.062944,0.02266 0.1133249,0.049093 0.1510915,0.079306 0.037767,0.027696 0.056609,0.066757 0.056609,0.1171126 0,0.055391 -0.033956,0.093143 -0.1019364,0.1132851 -0.06798,0.017624 -0.1661883,0.026391 -0.2945948,0.026391 -0.1132998,0 -0.2266224,-0.0176 -0.3399222,-0.052848 C 2.1763827,8.77464 2.0718935,8.7381309 1.9762181,8.7003643 l -0.083067,0.4380982 c 0.050356,0.020142 0.1108122,0.04278 0.1813098,0.067958 0.070498,0.025178 0.1510394,0.046573 0.2416792,0.064197 0.093158,0.020142 0.1964041,0.030218 0.3097039,0.030218 0.2265996,0 0.4053498,-0.026433 0.536274,-0.079306 0.133442,-0.052873 0.2290979,-0.1245816 0.2870067,-0.2152214 0.057909,-0.09064 0.086894,-0.1914009 0.086894,-0.302183 0,-0.1057464 -0.021395,-0.1938117 -0.064197,-0.2643093 C 3.4315378,8.3693178 3.3773619,8.3113466 3.3093821,8.2660267 3.2414022,8.218189 3.1671413,8.1791945 3.0865725,8.1489812 3.0060038,8.1162501 2.9279475,8.0872645 2.8524143,8.0620868 2.7819166,8.0369091 2.7164891,8.0130287 2.6560625,7.9903687 c -0.057909,-0.02266 -0.104494,-0.049093 -0.1397428,-0.079306 -0.035249,-0.030213 -0.052916,-0.06548 -0.052916,-0.105764 0,-0.037767 0.022705,-0.071723 0.068025,-0.1019364 0.047838,-0.032731 0.1372128,-0.049155 0.268137,-0.049155 0.083086,0 0.1611427,0.00759 0.2341582,0.022697 0.075533,0.015107 0.1422034,0.032706 0.2001122,0.052848 0.057909,0.017624 0.1020086,0.031496 0.1322219,0.041567 L 3.4491249,7.3294611 C 3.3660384,7.2942122 3.2678299,7.2664694 3.1545301,7.2463272 3.0437481,7.226185 2.9241447,7.216176 2.7957382,7.216176 Z"
         style="font-size:3.77666px;font-family:'Ubuntu Sans Mono';-inkscape-font-specification:'Ubuntu Sans Mono';fill:url(#linearGradient12);stroke-width:0.253351;stroke-linecap:round;stroke-linejoin:round;paint-order:markers stroke fill"
         id="path1" /></g></g></svg>
