<?xml version="1.0" encoding="UTF-8" standalone="no"?>
<!-- Created with Inkscape (http://www.inkscape.org/) -->

<svg
   width="16"
   height="16"
   viewBox="0 0 16 16"
   version="1.1"
   id="svg1"
   inkscape:version="1.4.3 (0d15f75042, 2025-12-25)"
   sodipodi:docname="BooleanSwitch.svg"
   xmlns:inkscape="http://www.inkscape.org/namespaces/inkscape"
   xmlns:sodipodi="http://sodipodi.sourceforge.net/DTD/sodipodi-0.dtd"
   xmlns:xlink="http://www.w3.org/1999/xlink"
   xmlns="http://www.w3.org/2000/svg"
   xmlns:svg="http://www.w3.org/2000/svg">
  <sodipodi:namedview
     id="namedview1"
     pagecolor="#505050"
     bordercolor="#eeeeee"
     borderopacity="1"
     inkscape:showpageshadow="0"
     inkscape:pageopacity="0"
     inkscape:pagecheckerboard="0"
     inkscape:deskcolor="#505050"
     inkscape:document-units="px"
     inkscape:zoom="37.406249"
     inkscape:cx="-5.3199667"
     inkscape:cy="8.7552216"
     inkscape:window-width="3436"
     inkscape:window-height="1404"
     inkscape:window-x="1920"
     inkscape:window-y="32"
     inkscape:window-maximized="1"
     inkscape:current-layer="layer1" />
  <defs
     id="defs1">
    <linearGradient
       id="swatch7">
      <stop
         style="stop-color:#4d9fdc;stop-opacity:1;"
         offset="0.5"
         id="stop8" />
      <stop
         style="stop-color:#ff5f5f;stop-opacity:1;"
         offset="0.5"
         id="stop10" />
    </linearGradient>
    <inkscape:path-effect
       effect="powerstroke"
       message=""
       id="path-effect1"
       is_visible="true"
       lpeversion="1.3"
       scale_width="2"
       interpolator_type="CubicBezierSmooth"
       interpolator_beta="0.25"
       start_linecap_type="zerowidth"
       end_linecap_type="zerowidth"
       offset_points="4.3324347,0.41623441"
       linejoin_type="round"
       miter_limit="4"
       not_jump="false"
       sort_points="true" />
    <inkscape:path-effect
       effect="fill_between_many"
       method="bsplinespiro"
       autoreverse="false"
       close="false"
       join="false"
       linkedpaths="#rect1,0,1"
       id="path-effect2" />
    <linearGradient
       inkscape:collect="always"
       xlink:href="#swatch7"
       id="linearGradient9"
       gradientUnits="userSpaceOnUse"
       x1="2.4927208"
       y1="5.0360341"
       x2="15.688533"
       y2="11.472061"
       spreadMethod="pad" />
  </defs>
  <g
     inkscape:label="Layer 1"
     inkscape:groupmode="layer"
     id="layer1">
    <path
       d="M 3.6013585,6.07507 H 15.229593 c 0.02182,0 0.03939,0.017567 0.03939,0.039387 v 5.6285738 c 0,0.02182 -0.01757,0.03939 -0.03939,0.03939 H 3.6013585 c -0.021821,0 -0.039387,-0.01757 -0.039387,-0.03939 V 6.1144572 c 0,-0.021821 0.017567,-0.039387 0.039387,-0.039387 z"
       id="path2"
       style="display:inline;fill:#262626"
       transform="matrix(1.2003067,0,0,1.114096,-3.3014585,-1.945909)"
       inkscape:original-d="M 0,0"
       inkscape:path-effect="#path-effect2" />
    <path
       style="display:inline;fill:url(#linearGradient9);fill-rule:nonzero;stroke:none;stroke-width:0.805;stroke-linecap:round;stroke-linejoin:round;stroke-opacity:1;paint-order:markers stroke fill"
       id="rect1"
       width="13.016746"
       height="6.3458657"
       x="2.5822515"
       y="5.082706"
       inkscape:linked-fill="path2"
       sodipodi:type="rect"
       transform="matrix(1.0795326,0,0,1.0019963,-1.8136253,-0.27055038)"
       d="m 2.6260453,5.9151748 c 0,0 3.6807117,0 12.9291557,0 -0.09976,0 -0.204473,-0.01902 -0.306296,-0.061945 -0.09018,-0.038018 -0.176465,-0.094195 -0.251351,-0.1690809 -0.06786,-0.067862 -0.127238,-0.1520934 -0.169081,-0.2513511 -0.03871,-0.091826 -0.06195,-0.1957004 -0.06195,-0.3062984 0,1.8447917 0,3.924348 0,6.2582783 0,-0.104048 0.02064,-0.208309 0.06195,-0.306298 0.03923,-0.09307 0.09636,-0.178629 0.169081,-0.251351 0.06978,-0.06977 0.154313,-0.128174 0.251351,-0.169082 0.09377,-0.03953 0.197724,-0.06194 0.306298,-0.06194 -1.398963,0 -2.831465,0 -4.2981,0 -3.0487703,0 -5.9232999,0 -8.6310577,0 0.1092593,0 0.2131823,0.02269 0.3062984,0.06195 0.097763,0.04121 0.1821131,0.09984 0.2513509,0.169081 0.073372,0.07337 0.1302084,0.159139 0.1690811,0.251351 0.041753,0.09904 0.061945,0.203412 0.061945,0.306298 0,-2.5043725 0,-4.5733664 0,-6.2582782 0,0.1142154 -0.025062,0.2188074 -0.061945,0.3062982 C 3.3083213,5.53825 3.2463586,5.6214851 3.1836946,5.684149 3.0994255,5.7684181 3.0089381,5.8209409 2.9323436,5.8532301 2.7308227,5.9381835 2.6260453,5.9151748 2.6260453,5.9151748 Z m 0,-1.6649376 c 0,0 -0.1168374,-0.025462 -0.3404547,0.068807 -0.085026,0.035844 -0.1855446,0.094176 -0.2791847,0.1878166 -0.069641,0.069641 -0.13846,0.1621041 -0.1878166,0.2791846 -0.040923,0.097074 -0.068807,0.2124214 -0.068807,0.3404547 0,1.6849119 0,3.7539058 0,6.2582783 0,0.11461 0.022476,0.230551 0.068807,0.340455 0.043156,0.102372 0.1062803,0.197648 0.1878166,0.279184 0.076934,0.07693 0.1706427,0.14206 0.2791846,0.187817 0.1033184,0.04356 0.2187648,0.06881 0.3404548,0.06881 2.7077578,0 5.5822874,0 8.6310577,0 1.466635,0 2.899137,0 4.2981,0 0.12093,0 0.23641,-0.02495 0.340455,-0.06881 0.107737,-0.04542 0.201655,-0.110287 0.279185,-0.187817 0.08081,-0.08081 0.144258,-0.175858 0.187816,-0.279184 0.04584,-0.108732 0.06881,-0.224555 0.06881,-0.340455 0,-2.3339303 0,-4.4134866 0,-6.2582783 0,-0.1231772 -0.02586,-0.2385701 -0.06881,-0.3404548 -0.04646,-0.1101999 -0.112401,-0.2037695 -0.187816,-0.2791847 -0.08322,-0.083217 -0.179065,-0.14561 -0.279185,-0.1878164 -0.112991,-0.047633 -0.229313,-0.068807 -0.340455,-0.068807 -9.248446,0 -12.9291577,0 -12.9291577,0 z"
       inkscape:path-effect="#path-effect1"
       ry="0.043793727" />
  </g>
</svg>
