<?xml version="1.0" encoding="UTF-8" standalone="no"?>
<!-- Created with Inkscape (http://www.inkscape.org/) -->

<svg
   width="512"
   height="512"
   viewBox="0 0 512 512"
   version="1.1"
   id="svg1"
   xml:space="preserve"
   inkscape:version="1.4.3 (0d15f75042, 2025-12-25)"
   sodipodi:docname="Counter-Gizmo.svg"
   xmlns:inkscape="http://www.inkscape.org/namespaces/inkscape"
   xmlns:sodipodi="http://sodipodi.sourceforge.net/DTD/sodipodi-0.dtd"
   xmlns="http://www.w3.org/2000/svg"
   xmlns:svg="http://www.w3.org/2000/svg"><sodipodi:namedview
     id="namedview1"
     pagecolor="#505050"
     bordercolor="#eeeeee"
     borderopacity="1"
     inkscape:showpageshadow="0"
     inkscape:pageopacity="0"
     inkscape:pagecheckerboard="0"
     inkscape:deskcolor="#505050"
     inkscape:document-units="px"
     inkscape:zoom="1.1689453"
     inkscape:cx="295.13784"
     inkscape:cy="294.71011"
     inkscape:window-width="3436"
     inkscape:window-height="1404"
     inkscape:window-x="1920"
     inkscape:window-y="32"
     inkscape:window-maximized="0"
     inkscape:current-layer="layer1" /><defs
     id="defs1"><inkscape:path-effect
       effect="powerstroke"
       message=""
       id="path-effect1"
       is_visible="true"
       lpeversion="1.3"
       scale_width="0.7"
       interpolator_type="CubicBezierSmooth"
       interpolator_beta="0.25"
       start_linecap_type="zerowidth"
       end_linecap_type="zerowidth"
       offset_points="4.3324347,0.41623441"
       linejoin_type="round"
       miter_limit="4"
       not_jump="false"
       sort_points="true" /><inkscape:path-effect
       effect="fill_between_many"
       method="bsplinespiro"
       autoreverse="false"
       close="false"
       join="false"
       linkedpaths="#rect1,0,1"
       id="path-effect2" /><inkscape:path-effect
       effect="powerstroke"
       message=""
       id="path-effect1-7"
       is_visible="true"
       lpeversion="1.3"
       scale_width="2"
       interpolator_type="CentripetalCatmullRom"
       interpolator_beta="0.2"
       start_linecap_type="zerowidth"
       end_linecap_type="zerowidth"
       offset_points="2,0.40684149"
       linejoin_type="round"
       miter_limit="4"
       not_jump="false"
       sort_points="true" /><inkscape:path-effect
       effect="fill_between_many"
       method="bsplinespiro"
       autoreverse="false"
       close="false"
       join="false"
       linkedpaths="#path1,0,1"
       id="path-effect2-5"
       is_visible="true"
       lpeversion="0" /></defs><g
     inkscape:label="Layer 1"
     inkscape:groupmode="layer"
     id="layer1"><g
       id="g1"
       transform="translate(6.722491,6.722491)"><path
         inkscape:original-d="M 0,0"
         inkscape:path-effect="#path-effect2-5"
         d="M 15.09514,7.9999985 A 7.0951411,7.0951411 0 0 1 7.9999985,15.09514 7.0951411,7.0951411 0 0 1 0.90485737,7.9999985 7.0951411,7.0951411 0 0 1 7.9999985,0.90485737 7.0951411,7.0951411 0 0 1 15.09514,7.9999985 Z"
         id="path2"
         style="fill:#262626;fill-opacity:1;stroke-width:0.0311946"
         transform="matrix(31.716396,0,0,31.716396,-4.453612,-4.453612)" /><path
         style="fill:#ffca5f;fill-opacity:1;fill-rule:nonzero;stroke:none;stroke-width:0.0253811;stroke-dasharray:none;paint-order:fill markers stroke"
         id="path1"
         inkscape:path-effect="#path-effect1-7"
         sodipodi:type="arc"
         sodipodi:cx="8"
         sodipodi:cy="8"
         sodipodi:rx="7.5522137"
         sodipodi:ry="7.5522137"
         d="m 14.738531,8 c 0,0.7012801 -0.107526,1.6257108 -0.529213,2.622691 -0.308283,0.728862 -0.777073,1.474785 -1.444457,2.14217 -0.57945,0.579449 -1.297882,1.087353 -2.14217,1.444457 -0.7838269,0.33153 -1.6684193,0.529213 -2.6226909,0.529213 -0.9245905,0 -1.8108131,-0.185818 -2.6226895,-0.529213 C 4.5661354,13.86622 3.8410904,13.370812 3.2351393,12.764861 2.6101708,12.139892 2.1233661,11.409243 1.7906825,10.622691 1.4337132,9.7787208 1.2614693,8.8894139 1.2614693,8 c 0,-0.8894139 0.1722439,-1.7787208 0.5292132,-2.6226909 C 2.1233661,4.5907569 2.6101708,3.860108 3.2351384,3.2351401 3.8410904,2.6291881 4.5661354,2.1337801 5.3773095,1.7906824 6.189187,1.4472873 7.0754096,1.2614695 7.9999987,1.2614693 c 0.954273,0 1.8388654,0.1976824 2.6226923,0.5292131 0.844288,0.3571039 1.56272,0.8650071 2.14217,1.4444569 0.667384,0.6673847 1.136174,1.4133075 1.444457,2.1421702 C 14.631005,6.3742892 14.738531,7.2987199 14.738531,8 Z m 1.627366,0 c 0,-0.8669818 -0.133066,-2.0160997 -0.657768,-3.2566342 -0.383308,-0.9062416 -0.96534,-1.8317417 -1.792547,-2.6589481 -0.71808,-0.71808 -1.609464,-1.34865239 -2.658948,-1.79254663 -0.975626,-0.41265493 -2.0752346,-0.6577677 -3.2566339,-0.65776772 -1.144506,2.1e-7 -2.2461413,0.2303654 -3.2566329,0.65776712 C 3.7349748,0.71838448 2.8353844,1.3334512 2.0844179,2.0844176 1.3098511,2.8589847 0.70546101,3.7655295 0.29187125,4.7433653 -0.152403,5.7937475 -0.36589665,6.8992164 -0.36589665,8 c 0,1.1007836 0.21349365,2.206253 0.6577679,3.256635 0.41358976,0.977836 1.01797985,1.88438 1.79254545,2.658946 0.7509677,0.750968 1.6505581,1.366035 2.6589491,1.792548 1.010493,0.427402 2.1121283,0.657767 3.2566326,0.657768 1.181401,0 2.2810096,-0.245113 3.2566356,-0.657768 1.049484,-0.443894 1.940868,-1.074467 2.658948,-1.792547 0.827207,-0.827206 1.409239,-1.752706 1.792547,-2.658948 C 16.232831,10.0161 16.365897,8.8669818 16.365897,8 Z"
         inkscape:linked-fill="path2"
         transform="matrix(29.796867,0,0,29.796867,10.902573,10.902573)" /><path
         d="m 330.98452,124.05529 c -5.87665,6.31199 -13.1452,12.5012 -21.85119,18.59552 -8.48866,5.87666 -17.43827,11.33529 -26.79759,16.34129 -9.14165,5.00631 -17.74248,9.03681 -25.79579,12.08414 l 14.71375,37.19071 c 6.09432,-2.17665 13.5206,-5.12779 22.22692,-8.82813 8.92366,-3.91765 16.73173,-8.23443 23.47906,-13.02306 v 126.66193 h -47.64702 v 37.19103 h 137.43112 v -37.19103 h -45.07991 v -189.0224 z"
         style="font-size:10.1845px;font-family:Monospace;-inkscape-font-specification:Monospace;fill:#ffca5f;fill-opacity:1;stroke-width:0.683207;paint-order:fill markers stroke"
         id="path4" /><path
         d="M 128.25015,172.32838 V 235.6906 H 70.773235 v 37.19104 h 57.476915 v 63.36223 h 38.50569 v -63.36223 h 57.47691 V 235.6906 h -57.47691 v -63.36222 z"
         style="font-size:10.1845px;font-family:Monospace;-inkscape-font-specification:Monospace;fill:#ffca5f;fill-opacity:1;stroke-width:0.683207;paint-order:fill markers stroke"
         id="path3" /></g></g></svg>
