<?xml version="1.0" encoding="UTF-8" standalone="no"?>
<!-- Created with Inkscape (http://www.inkscape.org/) -->

<svg
   width="16"
   height="16"
   viewBox="0 0 16 16"
   version="1.1"
   id="svg1"
   sodipodi:docname="Counter.svg"
   inkscape:version="1.4.3 (0d15f75042, 2025-12-25)"
   xmlns:inkscape="http://www.inkscape.org/namespaces/inkscape"
   xmlns:sodipodi="http://sodipodi.sourceforge.net/DTD/sodipodi-0.dtd"
   xmlns="http://www.w3.org/2000/svg"
   xmlns:svg="http://www.w3.org/2000/svg">
  <sodipodi:namedview
     id="namedview1"
     pagecolor="#505050"
     bordercolor="#eeeeee"
     borderopacity="1"
     inkscape:showpageshadow="0"
     inkscape:pageopacity="0"
     inkscape:pagecheckerboard="0"
     inkscape:deskcolor="#505050"
     inkscape:document-units="px"
     inkscape:zoom="52.900426"
     inkscape:cx="11.776843"
     inkscape:cy="5.8506145"
     inkscape:window-width="3436"
     inkscape:window-height="1404"
     inkscape:window-x="1920"
     inkscape:window-y="32"
     inkscape:window-maximized="1"
     inkscape:current-layer="layer1" />
  <defs
     id="defs1">
    <inkscape:path-effect
       effect="powerstroke"
       message=""
       id="path-effect1"
       is_visible="true"
       lpeversion="1.3"
       scale_width="2"
       interpolator_type="CentripetalCatmullRom"
       interpolator_beta="0.2"
       start_linecap_type="zerowidth"
       end_linecap_type="zerowidth"
       offset_points="2,0.40684149"
       linejoin_type="round"
       miter_limit="4"
       not_jump="false"
       sort_points="true" />
    <inkscape:path-effect
       effect="fill_between_many"
       method="bsplinespiro"
       autoreverse="false"
       close="false"
       join="false"
       linkedpaths="#path1,0,1"
       id="path-effect2" />
  </defs>
  <g
     inkscape:label="Layer 1"
     inkscape:groupmode="layer"
     id="layer1">
    <path
       inkscape:original-d="M 0,0"
       inkscape:path-effect="#path-effect2"
       d="M 15.095141,8 A 7.0951412,7.0951412 0 0 1 8,15.095141 7.0951412,7.0951412 0 0 1 0.90485882,8 7.0951412,7.0951412 0 0 1 8,0.90485882 7.0951412,7.0951412 0 0 1 15.095141,8 Z"
       id="path2"
       style="fill:#262626;fill-opacity:1"
       transform="matrix(0.98938053,0,0,0.98938053,0.08495576,0.08495576)" />
    <path
       style="fill:#ffca5f;fill-rule:nonzero;stroke:none;stroke-width:0.81364;stroke-dasharray:none;paint-order:fill markers stroke;fill-opacity:1"
       id="path1"
       inkscape:path-effect="#path-effect1"
       sodipodi:type="arc"
       sodipodi:cx="8"
       sodipodi:cy="8"
       sodipodi:rx="7.5522137"
       sodipodi:ry="7.5522137"
       d="m 14.738531,8 c 0,0.7012801 -0.107526,1.6257108 -0.529213,2.622691 -0.308283,0.728862 -0.777073,1.474785 -1.444457,2.14217 -0.57945,0.579449 -1.297882,1.087353 -2.14217,1.444457 -0.7838269,0.33153 -1.6684193,0.529213 -2.6226909,0.529213 -0.9245905,0 -1.8108131,-0.185818 -2.6226895,-0.529213 C 4.5661354,13.86622 3.8410904,13.370812 3.2351393,12.764861 2.6101708,12.139892 2.1233661,11.409243 1.7906825,10.622691 1.4337132,9.7787208 1.2614693,8.8894139 1.2614693,8 c 0,-0.8894139 0.1722439,-1.7787208 0.5292132,-2.6226909 C 2.1233661,4.5907569 2.6101708,3.860108 3.2351384,3.2351401 3.8410904,2.6291881 4.5661354,2.1337801 5.3773095,1.7906824 6.189187,1.4472873 7.0754096,1.2614695 7.9999987,1.2614693 c 0.954273,0 1.8388654,0.1976824 2.6226923,0.5292131 0.844288,0.3571039 1.56272,0.8650071 2.14217,1.4444569 0.667384,0.6673847 1.136174,1.4133075 1.444457,2.1421702 C 14.631005,6.3742892 14.738531,7.2987199 14.738531,8 Z m 1.627366,0 c 0,-0.8669818 -0.133066,-2.0160997 -0.657768,-3.2566342 -0.383308,-0.9062416 -0.96534,-1.8317417 -1.792547,-2.6589481 -0.71808,-0.71808 -1.609464,-1.34865239 -2.658948,-1.79254663 -0.975626,-0.41265493 -2.0752346,-0.6577677 -3.2566339,-0.65776772 -1.144506,2.1e-7 -2.2461413,0.2303654 -3.2566329,0.65776712 C 3.7349748,0.71838448 2.8353844,1.3334512 2.0844179,2.0844176 1.3098511,2.8589847 0.70546101,3.7655295 0.29187125,4.7433653 -0.152403,5.7937475 -0.36589665,6.8992164 -0.36589665,8 c 0,1.1007836 0.21349365,2.206253 0.6577679,3.256635 0.41358976,0.977836 1.01797985,1.88438 1.79254545,2.658946 0.7509677,0.750968 1.6505581,1.366035 2.6589491,1.792548 1.010493,0.427402 2.1121283,0.657767 3.2566326,0.657768 1.181401,0 2.2810096,-0.245113 3.2566356,-0.657768 1.049484,-0.443894 1.940868,-1.074467 2.658948,-1.792547 0.827207,-0.827206 1.409239,-1.752706 1.792547,-2.658948 C 16.232831,10.0161 16.365897,8.8669818 16.365897,8 Z"
       inkscape:linked-fill="path2"
       transform="matrix(0.92950158,0,0,0.92950158,0.56398736,0.56398736)" />
    <text
       xml:space="preserve"
       style="font-style:normal;font-variant:normal;font-weight:normal;font-stretch:normal;font-size:10.1845px;font-family:Monospace;-inkscape-font-specification:Monospace;writing-mode:lr-tb;direction:ltr;fill:#d5d037;fill-opacity:1;stroke-width:0.683208;stroke-dasharray:none;paint-order:fill markers stroke"
       x="1.9739329"
       y="11.150865"
       id="text2"><tspan
         sodipodi:role="line"
         id="tspan2"
         x="1.9739329"
         y="11.150865"
         style="font-style:normal;font-variant:normal;font-weight:bold;font-stretch:normal;font-family:'Ubuntu Sans Mono';-inkscape-font-specification:'Ubuntu Sans Mono';fill:#ffca5f;fill-opacity:1;stroke-width:0.683208">+1</tspan></text>
  </g>
</svg>
