<?xml version="1.0" encoding="UTF-8" standalone="no"?>
<!-- Created with Inkscape (http://www.inkscape.org/) -->

<svg
   width="16"
   height="16"
   viewBox="0 0 16 16"
   version="1.1"
   id="svg1"
   inkscape:version="1.4.3 (0d15f75042, 2025-12-25)"
   sodipodi:docname="InputOutput.svg"
   xmlns:inkscape="http://www.inkscape.org/namespaces/inkscape"
   xmlns:sodipodi="http://sodipodi.sourceforge.net/DTD/sodipodi-0.dtd"
   xmlns="http://www.w3.org/2000/svg"
   xmlns:svg="http://www.w3.org/2000/svg">
  <sodipodi:namedview
     id="namedview1"
     pagecolor="#505050"
     bordercolor="#eeeeee"
     borderopacity="1"
     inkscape:showpageshadow="0"
     inkscape:pageopacity="0"
     inkscape:pagecheckerboard="0"
     inkscape:deskcolor="#505050"
     inkscape:document-units="px"
     inkscape:zoom="37.40625"
     inkscape:cx="6.0818713"
     inkscape:cy="9.4502924"
     inkscape:window-width="3436"
     inkscape:window-height="1404"
     inkscape:window-x="1920"
     inkscape:window-y="32"
     inkscape:window-maximized="1"
     inkscape:current-layer="layer1" />
  <defs
     id="defs1">
    <inkscape:path-effect
       effect="fillet_chamfer"
       id="path-effect10"
       is_visible="true"
       lpeversion="1"
       nodesatellites_param="F,0,0,1,0,34,0,1 @ F,0,0,1,0,34,0,1 @ F,0,0,1,0,34,0,1 @ F,0,0,1,0,0,0,1 @ F,0,0,1,0,34,0,1 @ F,0,0,1,0,34,0,1 @ F,0,0,1,0,34,0,1 @ F,0,0,1,0,34,0,1 @ F,0,0,1,0,0,0,1 @ F,0,0,1,0,34,0,1"
       radius="34"
       unit="px"
       method="auto"
       mode="F"
       chamfer_steps="1"
       flexible="false"
       use_knot_distance="true"
       apply_no_radius="true"
       apply_with_radius="true"
       only_selected="false"
       hide_knots="false" />
    <inkscape:path-effect
       effect="powerstroke"
       message=""
       id="path-effect14"
       is_visible="true"
       lpeversion="1.3"
       scale_width="62.471396"
       interpolator_type="CentripetalCatmullRom"
       interpolator_beta="0"
       start_linecap_type="zerowidth"
       end_linecap_type="zerowidth"
       offset_points="8.0000001,0.39123899"
       linejoin_type="round"
       miter_limit="4"
       not_jump="false"
       sort_points="true" />
  </defs>
  <g
     inkscape:label="Layer 1"
     inkscape:groupmode="layer"
     id="layer1">
    <g
       id="g17"
       transform="matrix(0.03242623,0,0,0.03242623,-0.30206004,-0.27512525)">
      <rect
         style="fill:#262626;fill-opacity:1;stroke:none;stroke-width:1.01993;stroke-dasharray:none;stroke-opacity:1;paint-order:fill markers stroke"
         id="rect17"
         width="95.119171"
         height="335.34143"
         x="73.987282"
         y="40.51289" />
      <rect
         style="fill:#262626;fill-opacity:1;stroke:none;stroke-width:1.01993;stroke-dasharray:none;stroke-opacity:1;paint-order:fill markers stroke"
         id="rect17-7"
         width="95.119171"
         height="335.34143"
         x="342.95184"
         y="134.54268" />
      <rect
         style="fill:#262626;fill-opacity:1;stroke:none;stroke-width:1.25589;stroke-dasharray:none;stroke-opacity:1;paint-order:fill markers stroke"
         id="rect17-7-3"
         width="191.9928"
         height="251.90283"
         x="165.42432"
         y="131.84062" />
    </g>
    <path
       d="m 43.783363,71.470703 c 0,6.435342 0,15.274378 0,25.843747 0,74.96316 0,158.94695 0,249.3711 0,7.90424 1.583866,15.61829 4.602638,22.75547 2.92629,6.91853 7.173879,13.2282 12.514409,18.56873 5.214331,5.21433 11.482196,9.51706 18.568728,12.51441 6.955481,2.94192 14.656825,4.60264 22.755472,4.60264 67.1714,0 136.39554,0 206.75406,0 0,11.75611 0,23.57739 0,35.4025 0,8.02653 1.63199,15.73207 4.60264,22.75547 2.96847,7.01824 7.25107,13.30539 12.51438,18.5687 5.28211,5.28211 11.57461,9.55616 18.56876,12.51444 7.04918,2.98155 14.75646,4.60263 22.75543,4.60264 14.41152,0 28.60704,0 42.35551,0 8.09521,-10e-6 15.79673,-1.65934 22.75547,-4.60264 7.08305,-2.99588 13.35173,-7.29741 18.56873,-12.51441 5.33742,-5.33742 9.5864,-11.64615 12.51441,-18.56873 3.01666,-7.13219 4.60264,-14.84583 4.60264,-22.75547 0,-8.18615 0,-16.85848 0,-25.84375 0,-80.94522 0,-164.52233 0,-249.37099 -10e-6,-7.99911 -1.6211,-15.70642 -4.60264,-22.75558 -2.95828,-6.99415 -7.23233,-13.28665 -12.51441,-18.56873 -5.26331,-5.26332 -11.55047,-9.54593 -18.56872,-12.5144 -7.0234,-2.97065 -14.72895,-4.60265 -22.75548,-4.60265 -69.22693,0 -138.41976,0 -206.75406,0 0,-11.989938 0,-23.81423 0,-35.402496 0,-8.098646 -1.66072,-15.79999 -4.60264,-22.755471 -2.99735,-7.086532 -7.30008,-13.354398 -12.51441,-18.568729 -5.34053,-5.34053 -11.6502,-9.588119 -18.56873,-12.514409 -7.13718,-3.018772 -14.85123,-4.602638 -22.75547,-4.602638 -15.35847,0 -29.62304,0 -42.35547,0 -8.315128,0 -16.007637,1.748544 -22.755478,4.602641 C 72.127966,20.73715 65.91863,25.128275 60.900393,30.146516 55.288659,35.758254 51.155896,42.166465 48.386001,48.715232 45.117854,56.442 43.783363,64.231495 43.783363,71.470703 Z m 48.882492,0 c 0,-1.238482 0.224065,-2.490697 0.741139,-3.713197 0.44416,-1.050113 1.118741,-2.106048 2.058553,-3.04586 0.839294,-0.839295 1.865576,-1.559338 3.045864,-2.058558 1.064899,-0.450414 2.301499,-0.741139 3.713199,-0.741139 12.73243,0 26.997,0 42.35547,0 1.3456,0 2.58566,0.264231 3.7132,0.741139 1.11057,0.469731 2.15595,1.168641 3.04586,2.058556 0.87267,0.872669 1.57694,1.907206 2.05856,3.045862 0.46454,1.098298 0.74113,2.336315 0.74113,3.713197 0,19.396659 0,39.454587 0,59.843747 a 24.441255,24.441245 0 0 0 24.44126,24.44125 c 76.25142,0 153.702,0 231.19519,0 1.36539,0 2.60408,0.27197 3.71331,0.74114 1.12734,0.47682 2.16433,1.17702 3.04586,2.05855 0.88462,0.88462 1.58341,1.92249 2.05856,3.04586 0.47091,1.11338 0.74113,2.35235 0.74113,3.7132 0,84.84877 0,168.42588 0,249.37101 0,8.98536 0,17.65769 0,25.84384 0,1.34647 -0.26457,2.58646 -0.74113,3.7132 -0.47001,1.11122 -1.16915,2.15645 -2.05856,3.04586 -0.87312,0.87312 -1.90778,1.57719 -3.04586,2.05856 -1.09883,0.46476 -2.33687,0.74113 -3.71319,0.74113 -13.74848,0 -27.944,0 -42.35548,0 -1.36085,0 -2.59982,-0.27022 -3.71319,-0.74113 -1.12338,-0.47515 -2.16125,-1.17394 -3.04587,-2.05856 -0.88153,-0.88154 -1.58173,-1.91852 -2.05856,-3.04586 -0.46916,-1.10923 -0.74113,-2.34792 -0.74113,-3.7132 0,-20.05874 0,-40.10644 0,-59.84375 A 24.441258,24.441243 0 0 0 333.41991,356.2443 c -78.76979,0 -156.25989,0 -231.1953,0 -1.37688,0 -2.6149,-0.27659 -3.713198,-0.74113 -1.138656,-0.48162 -2.173193,-1.18589 -3.045862,-2.05856 -0.889915,-0.88991 -1.588825,-1.93529 -2.058556,-3.04586 -0.476908,-1.12754 -0.741139,-2.3676 -0.741139,-3.7132 0,-90.42415 0,-174.40794 0,-249.3711 0,-10.569369 0,-19.408405 0,-25.843747 z"
       style="fill:#4d9fdc;fill-opacity:1;fill-rule:nonzero;stroke:none;stroke-width:0.782;stroke-dasharray:none;stroke-opacity:1"
       id="path10"
       inkscape:path-effect="#path-effect10;#path-effect14"
       inkscape:original-d="m 68.224609,37.470703 v 93.843747 249.3711 H 333.41992 V 474.5293 H 443.77539 V 380.68555 131.31445 H 178.58008 V 37.470703 Z"
       inkscape:linked-fill="path15"
       transform="matrix(0.03242623,0,0,0.03242623,-0.30111486,-0.30111493)" />
  </g>
</svg>
