<?xml version="1.0" encoding="UTF-8" standalone="no"?>
<!-- Created with Inkscape (http://www.inkscape.org/) -->

<svg
   width="16"
   height="16"
   viewBox="0 0 16 16"
   version="1.1"
   id="svg1"
   inkscape:version="1.4.3 (0d15f75042, 2025-12-25)"
   sodipodi:docname="Interaction.svg"
   xmlns:inkscape="http://www.inkscape.org/namespaces/inkscape"
   xmlns:sodipodi="http://sodipodi.sourceforge.net/DTD/sodipodi-0.dtd"
   xmlns="http://www.w3.org/2000/svg"
   xmlns:svg="http://www.w3.org/2000/svg">
  <sodipodi:namedview
     id="namedview1"
     pagecolor="#505050"
     bordercolor="#eeeeee"
     borderopacity="1"
     inkscape:showpageshadow="0"
     inkscape:pageopacity="0"
     inkscape:pagecheckerboard="0"
     inkscape:deskcolor="#505050"
     inkscape:document-units="px"
     inkscape:zoom="18.703125"
     inkscape:cx="-31.091061"
     inkscape:cy="13.393484"
     inkscape:window-width="3436"
     inkscape:window-height="1404"
     inkscape:window-x="1920"
     inkscape:window-y="32"
     inkscape:window-maximized="1"
     inkscape:current-layer="layer1" />
  <defs
     id="defs1">
    <filter
       id="selectable_hidder_filter"
       width="1"
       height="1"
       x="0"
       y="0"
       style="color-interpolation-filters:sRGB;"
       inkscape:label="LPE boolean visibility">
      <feComposite
         id="boolops_hidder_primitive"
         result="composite1"
         operator="arithmetic"
         in2="SourceGraphic"
         in="BackgroundImage" />
    </filter>
    <inkscape:path-effect
       effect="bool_op"
       operand-path=""
       id="path-effect3"
       is_visible="true"
       lpeversion="1"
       operation="union"
       swap-operands="false"
       filltype-this="from-curve"
       filter=""
       filltype-operand="from-curve" />
    <inkscape:path-effect
       effect="powerstroke"
       message=""
       id="path-effect1"
       is_visible="true"
       lpeversion="1.3"
       scale_width="24.824684"
       interpolator_type="CentripetalCatmullRom"
       interpolator_beta="0.2"
       start_linecap_type="zerowidth"
       end_linecap_type="zerowidth"
       offset_points="2,0"
       linejoin_type="round"
       miter_limit="4"
       not_jump="false"
       sort_points="true" />
    <inkscape:path-effect
       effect="fill_between_many"
       method="bsplinespiro"
       autoreverse="false"
       close="false"
       join="false"
       linkedpaths="#rect1,0,1"
       id="path-effect2" />
  </defs>
  <g
     inkscape:label="Layer 1"
     inkscape:groupmode="layer"
     id="layer1">
    <path
       id="rect1"
       style="fill:#c38ef1;fill-opacity:1;fill-rule:nonzero;stroke:#262626;stroke-width:2.76043;stroke-linecap:round;stroke-linejoin:round;stroke-miterlimit:0;stroke-dasharray:none;stroke-opacity:1;paint-order:markers stroke fill"
       d="M 2.5062656,1.1762741 H 13.493266 L 9.5558931,11.566673 H 6.4425756 Z"
       sodipodi:nodetypes="ccccc"
       inkscape:linked-fill="path2"
       transform="matrix(0.94079708,0,0,0.94296976,0.4738437,1.9918931)" />
    <path
       d="m 6.421875,6.3945312 v 0.5351563 h 1.1171875 v 2.0449219 c 0,0.3729462 0.035316,0.6826554 0.1035156,0.9277344 C 7.7107774,10.142095 7.8295019,10.322773 8,10.445313 c 0.1753695,0.122539 0.4187008,0.183593 0.7304688,0.183593 0.1461412,0 0.2805593,-0.01491 0.4023437,-0.04687 0.1266557,-0.03197 0.2286986,-0.06817 0.3066406,-0.105468 0.077638,-0.03496 0.1233035,-0.05681 0.1367188,-0.06836 0,0 0.00195,-0.002 0.00195,-0.002 L 9.4980469,9.8613281 c -0.053585,0.031967 -0.1487578,0.073144 -0.2851563,0.1210938 -0.1315271,0.04795 -0.285568,0.072266 -0.4609375,0.072266 -0.1363985,0 -0.255123,-0.02928 -0.3574218,-0.087891 C 8.2971038,9.908191 8.2215539,9.798506 8.1679688,9.6386719 8.119255,9.47351 8.0957031,9.2392317 8.0957031,8.9355469 V 6.3945312 Z"
       style="font-size:7.64172px;font-family:'Ubuntu Sans Mono';-inkscape-font-specification:'Ubuntu Sans Mono';fill:#262626;stroke:#262626;stroke-width:0.5;stroke-linecap:round;stroke-linejoin:round;stroke-miterlimit:0;paint-order:markers stroke fill"
       id="path4" />
    <path
       d="m 7.65625,4.5 c -0.1363985,0 -0.2521819,0.051115 -0.3496094,0.1523437 -0.097427,0.1012283 -0.1464844,0.238245 -0.1464844,0.4140625 0,0.1704898 0.049057,0.3094596 0.1464844,0.4160157 0.097428,0.1012282 0.2132109,0.1523437 0.3496094,0.1523437 0.1412699,0 0.2590064,-0.051115 0.3515625,-0.1523437 C 8.1003686,5.3758658 8.1464844,5.236896 8.1464844,5.0664062 8.1464844,4.8905887 8.1003686,4.753572 8.0078125,4.6523437 7.9152564,4.5511155 7.7975199,4.5 7.65625,4.5 Z"
       style="font-size:7.64172px;font-family:'Ubuntu Sans Mono';-inkscape-font-specification:'Ubuntu Sans Mono';fill:#262626;stroke:#262626;stroke-width:0.5;stroke-linecap:round;stroke-linejoin:round;stroke-miterlimit:0;paint-order:markers stroke fill"
       id="path3" />
  </g>
</svg>
