<?xml version="1.0" encoding="UTF-8" standalone="no"?>
<!-- Created with Inkscape (http://www.inkscape.org/) -->

<svg
   width="512"
   height="512"
   viewBox="0 0 512 512"
   version="1.1"
   id="svg1"
   xml:space="preserve"
   inkscape:version="1.4.3 (0d15f75042, 2025-12-25)"
   sodipodi:docname="LDL.svg"
   xmlns:inkscape="http://www.inkscape.org/namespaces/inkscape"
   xmlns:sodipodi="http://sodipodi.sourceforge.net/DTD/sodipodi-0.dtd"
   xmlns="http://www.w3.org/2000/svg"
   xmlns:svg="http://www.w3.org/2000/svg"><sodipodi:namedview
     id="namedview1"
     pagecolor="#505050"
     bordercolor="#eeeeee"
     borderopacity="1"
     inkscape:showpageshadow="0"
     inkscape:pageopacity="0"
     inkscape:pagecheckerboard="0"
     inkscape:deskcolor="#505050"
     inkscape:document-units="px"
     inkscape:zoom="1.4142136"
     inkscape:cx="-8.4852813"
     inkscape:cy="270.46834"
     inkscape:window-width="3436"
     inkscape:window-height="1404"
     inkscape:window-x="1920"
     inkscape:window-y="32"
     inkscape:window-maximized="1"
     inkscape:current-layer="layer1" /><defs
     id="defs1"><inkscape:path-effect
       effect="powerstroke"
       message=""
       id="path-effect14"
       is_visible="true"
       lpeversion="1.3"
       scale_width="25"
       interpolator_type="CentripetalCatmullRom"
       interpolator_beta="0"
       start_linecap_type="zerowidth"
       end_linecap_type="zerowidth"
       offset_points="8.0000001,0.39123899"
       linejoin_type="round"
       miter_limit="4"
       not_jump="false"
       sort_points="true" /><filter
       id="selectable_hidder_filter"
       width="1"
       height="1"
       x="0"
       y="0"
       style="color-interpolation-filters:sRGB;"
       inkscape:label="LPE boolean visibility"><feComposite
         id="boolops_hidder_primitive"
         result="composite1"
         operator="arithmetic"
         in2="SourceGraphic"
         in="BackgroundImage" /></filter><inkscape:path-effect
       effect="bool_op"
       operand-path=""
       id="path-effect13"
       is_visible="true"
       lpeversion="1"
       operation="diff"
       swap-operands="false"
       filltype-this="from-curve"
       filter=""
       filltype-operand="from-curve" /><inkscape:path-effect
       effect="powerstroke"
       message=""
       id="path-effect11"
       is_visible="true"
       lpeversion="1.3"
       scale_width="1"
       interpolator_type="CentripetalCatmullRom"
       interpolator_beta="0.2"
       start_linecap_type="zerowidth"
       end_linecap_type="zerowidth"
       offset_points="8,0.39123899"
       linejoin_type="round"
       miter_limit="4"
       not_jump="false"
       sort_points="true" /><inkscape:path-effect
       effect="fillet_chamfer"
       id="path-effect10"
       is_visible="true"
       lpeversion="1"
       nodesatellites_param="F,0,0,1,0,34,0,1 @ F,0,0,1,0,34,0,1 @ F,0,0,1,0,34,0,1 @ F,0,0,1,0,0,0,1 @ F,0,0,1,0,34,0,1 @ F,0,0,1,0,34,0,1 @ F,0,0,1,0,34,0,1 @ F,0,0,1,0,34,0,1 @ F,0,0,1,0,0,0,1 @ F,0,0,1,0,34,0,1"
       radius="34"
       unit="px"
       method="auto"
       mode="F"
       chamfer_steps="1"
       flexible="false"
       use_knot_distance="true"
       apply_no_radius="true"
       apply_with_radius="true"
       only_selected="false"
       hide_knots="false" /><inkscape:perspective
       sodipodi:type="inkscape:persp3d"
       inkscape:vp_x="0 : 256 : 1"
       inkscape:vp_y="0 : 1000 : 0"
       inkscape:vp_z="512 : 256 : 1"
       inkscape:persp3d-origin="256 : 170.66667 : 1"
       id="perspective1" /><inkscape:path-effect
       effect="fill_between_many"
       method="bsplinespiro"
       autoreverse="false"
       close="false"
       join="false"
       linkedpaths="#path10,0,1"
       id="path-effect12" /><inkscape:path-effect
       effect="fill_between_many"
       method="bsplinespiro"
       autoreverse="false"
       close="false"
       join="false"
       linkedpaths="#path10,0,1"
       id="path-effect15" /></defs><g
     inkscape:label="Layer 1"
     inkscape:groupmode="layer"
     id="layer1"><g
       id="g17"><rect
         style="fill:#262626;fill-opacity:1;stroke:none;stroke-width:1.01993;stroke-dasharray:none;stroke-opacity:1;paint-order:fill markers stroke"
         id="rect17"
         width="95.119171"
         height="335.34143"
         x="73.987282"
         y="40.51289" /><rect
         style="fill:#262626;fill-opacity:1;stroke:none;stroke-width:1.01993;stroke-dasharray:none;stroke-opacity:1;paint-order:fill markers stroke"
         id="rect17-7"
         width="95.119171"
         height="335.34143"
         x="342.95184"
         y="134.54268" /><rect
         style="fill:#262626;fill-opacity:1;stroke:none;stroke-width:1.25589;stroke-dasharray:none;stroke-opacity:1;paint-order:fill markers stroke"
         id="rect17-7-3"
         width="191.9928"
         height="251.90283"
         x="165.42432"
         y="131.84062" /></g><path
       d="m 58.443634,71.470703 c 0,6.435342 0,15.274378 0,25.843747 0,74.96316 0,158.94695 0,249.3711 0,5.93725 1.188097,11.7097 3.444542,17.04453 2.189594,5.17679 5.371562,9.90625 9.378611,13.9133 3.908813,3.90881 8.610243,7.1356 13.913289,9.3786 5.198863,2.19894 10.961801,3.44454 17.044534,3.44454 71.83168,0 146.01081,0 221.41434,0 0,16.56362 0,33.30935 0,50.06278 0,6.02876 1.22411,11.79484 3.44454,17.04453 2.2212,5.25151 5.42941,9.96409 9.37858,13.91327 3.96327,3.96327 8.67986,7.16507 13.91332,9.37863 5.26898,2.22859 11.03636,3.44454 17.0445,3.44454 14.41151,0 28.60703,0 42.3555,0 6.08016,0 11.84323,-1.24457 17.04453,-3.44454 5.30044,-2.24189 10.00242,-5.46774 13.91329,-9.37861 4.00472,-4.00472 7.18773,-8.73347 9.37861,-13.91329 2.25487,-5.3311 3.44454,-11.10324 3.44454,-17.04453 0,-8.18615 0,-16.85848 0,-25.84375 0,-80.94522 0,-164.52233 0,-249.37099 0,-6.00827 -1.21595,-11.77567 -3.44454,-17.04464 -2.21356,-5.23346 -5.41536,-9.95005 -9.3786,-13.91329 -3.94919,-3.94919 -8.66177,-7.15741 -13.91329,-9.37861 -5.24969,-2.22043 -11.01577,-3.44454 -17.04454,-3.44454 -74.18207,0 -148.325,0 -221.41434,0 0,-17.02356 0,-33.77627 0,-50.062776 0,-6.082733 -1.2456,-11.84567 -3.44454,-17.044533 -2.243,-5.303046 -5.46979,-10.004476 -9.3786,-13.91329 -4.00705,-4.007049 -8.73651,-7.189017 -13.9133,-9.378611 -5.33483,-2.256445 -11.10728,-3.444542 -17.04453,-3.444542 -15.35847,0 -29.62304,0 -42.35547,0 -6.244733,0 -12.00106,1.311332 -17.044538,3.444544 -5.492959,2.323326 -10.149326,5.614643 -13.913298,9.378618 -4.209129,4.209132 -7.30605,9.013226 -9.378598,13.91328 -2.443077,5.776083 -3.444542,11.604994 -3.444542,17.044533 z m 19.56195,0 c 0,-3.03815 0.557091,-6.250951 1.899235,-9.424136 1.141656,-2.699177 2.851603,-5.35855 5.194347,-7.701295 2.089124,-2.089125 4.673678,-3.913779 7.701305,-5.194358 2.769261,-1.171299 5.94204,-1.899236 9.424139,-1.899236 12.73243,0 26.997,0 42.35547,0 3.31259,0 6.49426,0.660001 9.42414,1.899235 2.85268,1.206583 5.47358,2.966638 7.7013,5.194354 2.1733,2.173307 3.95819,4.778685 5.19435,7.701301 1.20753,2.854916 1.89924,6.03134 1.89924,9.424135 0,19.396659 0,39.454587 0,59.843747 a 9.7809838,9.7809739 0 0 0 9.78098,9.78097 c 76.25142,0 153.702,0 231.19519,0 3.36316,0 6.54131,0.67986 9.42425,1.89924 2.89407,1.22409 5.50563,2.99869 7.7013,5.19435 2.20345,2.20346 3.97449,4.81723 5.19435,7.7013 1.22388,2.89357 1.89923,6.07245 1.89924,9.42414 0,84.84877 0,168.42588 0,249.37101 0,8.98536 0,17.65769 0,25.84384 0,3.31482 -0.66088,6.49631 -1.89924,9.42414 -1.20729,2.85436 -2.96793,5.47487 -5.19434,7.70129 -2.17446,2.17445 -4.78014,3.95881 -7.70131,5.19436 -2.85627,1.2081 -6.03276,1.89923 -9.42412,1.89924 -13.74849,0 -27.94401,0 -42.35549,0 -3.35169,-1e-5 -6.53056,-0.67536 -9.42412,-1.89923 -2.88409,-1.21987 -5.49786,-2.99091 -7.70132,-5.19436 -2.19567,-2.19568 -3.97026,-4.80723 -5.19435,-7.7013 -1.21938,-2.88294 -1.89924,-6.0611 -1.89924,-9.42414 0,-20.05874 0,-40.10644 0,-59.84375 a 9.780987,9.7809716 0 0 0 -9.78098,-9.78097 c -78.76979,0 -156.25989,0 -231.1953,0 -3.392796,0 -6.56922,-0.69171 -9.424137,-1.89924 -2.922616,-1.23616 -5.527993,-3.02105 -7.7013,-5.19435 -2.227716,-2.22772 -3.987771,-4.84862 -5.194354,-7.7013 -1.239234,-2.92988 -1.899235,-6.11155 -1.899235,-9.42414 0,-90.42415 0,-174.40794 0,-249.3711 0,-10.569369 0,-19.408405 0,-25.843747 z"
       style="fill:#4d9fdc;fill-rule:nonzero;stroke:none;stroke-width:0.782;fill-opacity:1;stroke-opacity:1;stroke-dasharray:none"
       id="path10"
       inkscape:path-effect="#path-effect10;#path-effect14"
       inkscape:original-d="m 68.224609,37.470703 v 93.843747 249.3711 H 333.41992 V 474.5293 H 443.77539 V 380.68555 131.31445 H 178.58008 V 37.470703 Z"
       inkscape:linked-fill="path15" /><path
       fill="none"
       stroke="#e0e0e0"
       stroke-linecap="round"
       stroke-linejoin="round"
       stroke-width="13.9776"
       d="M 122.84399,72.638888 V 121.56032 L 150.79911,93.605216 M 122.84399,121.56032 94.888887,93.605216"
       id="path1" /><path
       fill="none"
       stroke="#e0e0e0"
       stroke-linecap="round"
       stroke-linejoin="round"
       stroke-width="13.9776"
       d="m 388.9439,389.4888 v 48.92143 l 27.95512,-27.9551 m -27.95512,27.9551 -27.9551,-27.9551"
       id="path1-0" /><path
       fill="#e0e0e0"
       d="m 151.67383,183.51451 v 24.16183 h 34.77539 v -24.16183 z m 69.55078,0 v 24.16183 h 139.10156 v -24.16183 z m -69.55078,60.40457 v 24.16184 h 34.77539 v -24.16184 z m 69.55078,0 v 24.16184 h 139.10156 v -24.16184 z m -69.55078,60.40458 v 24.16183 h 34.77539 v -24.16183 z m 69.55078,0 v 24.16183 h 139.10156 v -24.16183 z"
       id="path1-06"
       style="stroke-width:14.4934" /></g></svg>
